<?xml version="1.0" encoding="utf-8"?>
<!-- Generator: Adobe Illustrator 16.0.4, SVG Export Plug-In . SVG Version: 6.00 Build 0)  -->
<!DOCTYPE svg PUBLIC "-//W3C//DTD SVG 1.1//EN" "http://www.w3.org/Graphics/SVG/1.1/DTD/svg11.dtd">
<svg version="1.1" id="Layer_1" xmlns="http://www.w3.org/2000/svg" xmlns:xlink="http://www.w3.org/1999/xlink" x="0px" y="0px"
	 width="1024px" height="768px" viewBox="0 0 1024 768" enable-background="new 0 0 1024 768" xml:space="preserve">
<path fill-rule="evenodd" clip-rule="evenodd" fill="#DBE15F" d="M512.442,455.939c-92.932,0.617-172.533-74.888-172.386-172.511
	c0.15-99.021,81.505-172.436,172.837-172.228c91.876,0.211,172.408,74.69,172.103,172.968
	C684.694,381.792,604.77,456.713,512.442,455.939z"/>
<path fill-rule="evenodd" clip-rule="evenodd" fill="#4CBACB" d="M14.076,589.925c0-13.149-0.03-26.295,0.032-39.443
	c0.01-1.943-0.773-4.917,2.164-5.066c2.887-0.144,6.74-2.201,8.58,1.85c0.822,1.809,1.486,1.909,2.815,1.031
	c5.213-3.438,11.25-3.253,17.075-3.805c13.493-1.271,27.044-1.002,40.527-0.239c7.082,0.4,13.69,3.386,18.618,8.953
	c1.791,2.027,2.949,2.229,4.887-0.011c5.769-6.665,13.701-8.942,22.042-9.114c15.028-0.31,30.08-0.867,45.093,0.821
	c11.686,1.312,21.82,11.588,21.973,23.277c0.273,20.766,0.161,41.539,0.282,62.309c0.017,2.819-0.272,5.062-3.896,4.6
	c-3.006-0.382-6.635,0.581-6.583-4.703c0.18-18.67,0.083-37.346,0.064-56.019c-0.013-13.125-7.018-20.205-19.96-20.211
	c-11.625-0.004-23.297,0.685-34.857-0.16c-12.245-0.896-21.501,9.019-20.979,20.69c0.826,18.445-0.09,36.964,0.369,55.437
	c0.192,7.743-5.332,3.783-8.164,4.703c-3.875,1.261-3.471-2.164-3.473-4.6c-0.008-18.676-0.413-37.361,0.155-56.021
	c0.32-10.528-8.394-21.105-20.367-20.255c-11.755,0.836-23.615,0.151-35.428,0.275c-5.416,0.059-10.642,1.13-14.875,4.852
	c-3.646,3.206-5.15,7.315-5.126,12.203c0.087,19.057-0.034,38.111,0.084,57.167c0.024,3.925-0.227,6.277-5.373,6.259
	c-5.192-0.019-5.834-2.148-5.758-6.48C14.219,615.463,14.076,602.691,14.076,589.925z"/>
<path fill-rule="evenodd" clip-rule="evenodd" fill="#4CBACB" d="M736.76,589.323c0-12.946-0.047-25.894,0.051-38.841
	c0.015-1.851-1.151-4.943,1.899-5.098c2.789-0.142,6.666-2.198,8.33,2.024c0.739,1.886,1.426,2.005,2.774,0.994
	c5.236-3.923,11.584-3.839,17.517-4.125c13.86-0.666,27.779-1.196,41.621,0.499c15.139,1.855,24.025,10.634,24.493,25.746
	c0.627,20.166,0.227,40.363,0.331,60.544c0.017,2.938-0.938,4.283-4.067,3.638c-2.851-0.589-6.523,0.963-6.439-4.591
	c0.28-18.844,0.183-37.698,0.076-56.548c-0.069-12.376-7.209-19.221-19.745-19.268c-5.333-0.019-10.663-0.014-15.994-0.002
	c-6.473,0.016-12.95-0.089-19.422,0.107c-14.921,0.448-21.013,6.735-21.032,21.541c-0.021,17.518-0.156,35.036,0.097,52.55
	c0.069,4.702-1.227,6.399-6.05,6.138c-3.54-0.19-4.53-1.378-4.496-4.754C736.844,616.36,736.763,602.842,736.76,589.323z"/>
<path fill-rule="evenodd" clip-rule="evenodd" fill="#4CBACB" d="M246.066,589.322c0.001-13.141-0.029-26.282,0.039-39.421
	c0.008-1.712-0.873-4.523,1.904-4.534c2.819-0.01,6.684-2.208,8.318,2.031c0.728,1.89,1.367,2.028,2.736,1.039
	c5.79-4.179,12.708-3.987,19.219-4.246c14.055-0.557,28.149-0.935,42.202,0.703c11.254,1.312,20.816,11.043,21.731,22.223
	c1.715,20.915,0.359,41.865,0.919,62.787c0.107,4.034-1.66,4.664-5.109,4.693c-3.68,0.032-5.489-0.681-5.44-4.97
	c0.205-17.897,0.103-35.8,0.079-53.702c-0.02-15.038-6.593-21.773-21.52-21.582c-12.93,0.162-25.891-0.927-38.788,0.768
	c-10.539,1.386-15.81,7.222-15.875,18.011c-0.113,18.472-0.114,36.945,0.032,55.415c0.032,4.043-0.462,6.214-5.453,6.152
	c-4.781-0.063-5.101-2.194-5.056-5.947C246.162,615.602,246.066,602.46,246.066,589.322z"/>
<path fill-rule="evenodd" clip-rule="evenodd" fill="#4CBACB" d="M14.261,650.882c332.313,0,664.625,0,996.937,0
	c0.003,1.084,0.003,2.164,0.003,3.246c-332.314,0-664.628,0-996.941,0C14.261,653.046,14.261,651.966,14.261,650.882z"/>
<path fill-rule="evenodd" clip-rule="evenodd" fill="#4CBACB" d="M500.823,594.938c0-11.613-0.124-23.226,0.072-34.834
	c0.062-3.713-1.052-5.33-4.854-4.805c-1.308,0.182-2.661,0.034-3.993,0.027c-5.576-0.024-7.77-3.353-5.865-8.671
	c0.949-2.655,3.108-1.718,4.805-1.751c10.781-0.199,9.782,1.638,9.831-10.305c0.027-6.092,0.196-12.19-0.061-18.27
	c-0.163-3.841,1.731-4.414,4.872-4.295c2.987,0.114,5.745-0.173,5.631,4.265c-0.203,7.8,0.125,15.612-0.131,23.409
	c-0.126,3.902,0.999,5.731,5.087,5.179c1.311-0.176,2.683,0.127,3.993-0.052c4.391-0.602,5.875,0.985,5.917,5.615
	c0.044,4.949-2.416,4.963-6.001,4.926c-8.921-0.092-8.921,0.007-8.921,9.118c0,21.703-0.079,43.402,0.071,65.099
	c0.027,3.892-0.47,5.866-5.153,5.792c-4.358-0.067-5.486-1.426-5.39-5.619C500.994,618.164,500.823,606.548,500.823,594.938z"/>
<path fill-rule="evenodd" clip-rule="evenodd" fill="#4CBACB" d="M541.024,590.026c0-13.13-0.035-26.259,0.039-39.39
	c0.009-1.766-1.001-4.471,1.203-5.081c2.771-0.766,6.654-1.785,8.518,0.649c1.811,2.363,2.694,1.143,3.924,0.324
	c5.875-3.905,12.473-2.689,18.862-2.693c3.719-0.005,2.464,3.12,2.622,5.15c0.168,2.135,0.182,4.278-2.999,4.336
	c-2.65,0.048-5.321,0.249-7.934,0.681c-8.54,1.415-13.933,7.42-13.979,16.056c-0.109,19.786-0.042,39.578,0.084,59.364
	c0.023,3.611-0.023,5.98-4.938,5.981c-4.788,0.003-5.635-1.753-5.56-5.991c0.228-13.124,0.083-26.259,0.083-39.387
	C540.973,590.026,540.998,590.026,541.024,590.026z"/>
<path fill-rule="evenodd" clip-rule="evenodd" fill="#4CBACB" d="M976.825,590.215c0-13.13-0.048-26.258,0.054-39.386
	c0.014-1.873-1.193-4.752,1.561-5.374c2.631-0.591,6.263-1.624,8.054,0.615c1.638,2.045,2.452,1.615,3.914,0.627
	c4.535-3.066,9.655-2.898,14.82-3.036c3.721-0.098,4.954,1.072,4.918,4.845c-0.033,3.688-1.129,4.833-4.901,4.9
	c-11.442,0.202-18.175,7.245-18.206,18.76c-0.051,19.218-0.073,38.434,0.169,57.648c0.054,4.201-1.042,5.505-5.379,5.575
	c-4.7,0.074-5.194-1.917-5.138-5.792c0.191-13.125,0.071-26.255,0.071-39.383C976.784,590.215,976.805,590.215,976.825,590.215z"/>
<path fill-rule="evenodd" clip-rule="evenodd" fill="#4FBCCC" d="M720.431,589.948c0,13.127-0.138,26.257,0.079,39.381
	c0.07,4.302-0.971,6.015-5.693,6.074c-5.065,0.061-5.468-2.32-5.454-6.294c0.1-25.874,0.121-51.749-0.017-77.626
	c-0.023-4.302,0.629-6.42,5.801-6.558c5.827-0.155,5.34,2.994,5.314,6.779C720.38,564.452,720.431,577.199,720.431,589.948z"/>
<path fill-rule="evenodd" clip-rule="evenodd" fill="#65C1CF" d="M873.657,511.836c43.255,0,86.509,0,129.764,0
	c1.526,0,3.053-0.059,4.572,0.03c1.24,0.071,3.026-0.275,2.901,1.733c-0.087,1.391-1.516,1.479-2.676,1.508
	c-1.334,0.032-2.668,0.025-4.003,0.025c-87.078,0.002-174.163,0.014-261.241-0.074c-2.347-0.003-6.545,1.572-6.626-1.874
	c-0.061-2.517,4.152-1.279,6.399-1.284C786.385,511.815,830.021,511.836,873.657,511.836z"/>
<path fill-rule="evenodd" clip-rule="evenodd" fill="#4CBACB" d="M227.705,590.406c0,13.32-0.17,26.645,0.098,39.96
	c0.086,4.304-1.676,4.899-5.363,4.971c-3.964,0.074-5.204-1.116-5.179-5.15c0.164-26.642,0.157-53.28,0.007-79.921
	c-0.022-3.905,0.994-5.236,5.068-5.271c4.23-0.035,5.562,1.117,5.472,5.454C227.529,563.762,227.706,577.088,227.705,590.406z"/>
<path fill-rule="evenodd" clip-rule="evenodd" fill="#4FBACB" d="M343.854,515.172c-30.651,0.003-61.303,0.003-91.955,0
	c-1.523,0-3.046,0.008-4.568-0.039c-0.978-0.028-2.065-0.228-2.178-1.371c-0.156-1.591,1.163-1.698,2.303-1.768
	c1.138-0.067,2.283-0.037,3.425-0.037c61.875,0,123.749,0,185.624,0.002c0.571,0,1.154-0.075,1.711,0.014
	c1.534,0.247,4.168-0.767,4.109,1.636c-0.056,2.285-2.668,1.529-4.231,1.531C406.68,515.182,375.266,515.172,343.854,515.172z"/>
<path fill-rule="evenodd" clip-rule="evenodd" fill="#4FBACB" d="M105.465,515.172c-28.55,0.003-57.1,0.003-85.65,0
	c-1.418,0-2.837,0.008-4.255-0.039c-0.91-0.028-1.923-0.228-2.028-1.371c-0.146-1.591,1.083-1.698,2.145-1.768
	c1.06-0.067,2.127-0.037,3.19-0.037c57.632,0,115.264,0,172.896,0.002c0.532,0,1.075-0.075,1.594,0.014
	c1.429,0.247,3.882-0.767,3.827,1.636c-0.052,2.285-2.485,1.529-3.94,1.531C163.983,515.182,134.724,515.172,105.465,515.172z"/>
<path fill-rule="evenodd" clip-rule="evenodd" fill="#4FBACB" d="M609.229,515.172c-25.93,0.003-51.859,0.003-77.791,0
	c-1.289,0-2.578,0.008-3.865-0.039c-0.827-0.028-1.747-0.228-1.842-1.371c-0.133-1.591,0.984-1.698,1.948-1.768
	c0.962-0.067,1.932-0.037,2.897-0.037c52.343,0,104.689,0,157.034,0.002c0.481,0,0.977-0.075,1.446,0.014
	c1.298,0.247,3.526-0.767,3.477,1.636c-0.047,2.285-2.258,1.529-3.581,1.531C662.379,515.182,635.803,515.172,609.229,515.172z"/>
<path fill-rule="evenodd" clip-rule="evenodd" fill="#55BDCD" d="M720.44,521.605c0,1.143,0.002,2.285,0,3.43
	c-0.019,5.668-5.145,9.313-9.354,5.862c-4.15-3.407-0.939-9.252-1.617-13.966c-0.253-1.767-0.479-3.876,1.911-4.84
	C717.625,509.576,720.44,512.518,720.44,521.605z"/>
<path fill-rule="evenodd" clip-rule="evenodd" fill="#4BBBCB" d="M227.708,521.929c0,1.321-0.152,2.669,0.027,3.968
	c0.564,4.067-0.753,5.598-5.192,5.587c-4.386-0.013-5.679-1.432-5.259-5.559c0.305-2.997,0.312-6.073,0-9.067
	c-0.438-4.195,1.461-5.015,5.229-5.005c3.73,0.009,5.806,0.753,5.232,4.972C227.517,518.498,227.706,520.227,227.708,521.929z"/>
<path fill-rule="evenodd" clip-rule="evenodd" fill="#FDFDFB" d="M402.671,230.696c10.557-8.043,21.983-7.392,32.852-7.942
	c15.018-0.761,30.115-0.606,45.155-0.14c10.942,0.338,20.93,4.052,28.638,12.303c2.284,2.443,3.458,3.523,6.276,0.18
	c7.802-9.256,18.7-12.226,30.211-12.43c19.799-0.349,39.604-0.823,59.399,0.844c16.467,1.385,30.078,15.557,30.931,31.972
	c1.44,27.808,0.404,55.625,0.916,83.43c0.086,4.605-0.99,6.867-5.919,6.077c-1.114-0.178-2.306-0.172-3.423,0
	c-4.384,0.676-5.428-1.265-5.4-5.452c0.175-26.109-0.03-52.222,0.143-78.333c0.071-11.065-5.447-18.208-14.689-23.184
	c-2.585-1.391-5.34-1.842-8.263-1.833c-18.486,0.059-36.975-0.012-55.462,0.091c-13.24,0.072-23.531,10.305-23.582,23.57
	c-0.103,26.493-0.138,52.986,0.067,79.477c0.037,4.521-1.215,5.854-5.738,5.744c-10.214-0.251-10.219-0.016-10.219-10.332
	c0-24.396-0.587-48.811,0.243-73.181c0.421-12.381-11.805-26.481-25.592-25.609c-16.136,1.023-32.385,0.29-48.584,0.298
	c-4.414,0.002-8.733,0.684-12.903,2.036c-9.54,3.09-15.074,10.531-15.102,20.536c-0.074,26.683-0.252,53.369,0.133,80.048
	c0.087,6.04-2.545,6.356-7.067,6.158c-4.172-0.182-7.893,0.892-7.82-6.023c0.372-36.019,0.306-72.044,0.032-108.064
	c-0.042-5.607,1.917-7.007,6.878-6.404C398.374,224.974,403.46,222.709,402.671,230.696z"/>
<path fill-rule="evenodd" clip-rule="evenodd" fill="#73C3B4" d="M554.197,441.761c-2.814,3.332-6.565,3.231-11.68,3.946
	C546.58,441.125,550.594,442.188,554.197,441.761z"/>
<path fill-rule="evenodd" clip-rule="evenodd" fill="#6FC1B6" d="M499.374,446.094c-2.883,2.328-5.819,1.742-8.71,1.361
	c-0.876-0.117-1.946-0.602-1.725-1.809c0.222-1.219,1.349-1.21,2.257-1.061C493.932,445.029,496.649,445.581,499.374,446.094z"/>
<path fill-rule="evenodd" clip-rule="evenodd" fill="#6AC0B9" d="M542.539,122.583c4.648-1.172,7.563,0.541,10.619,1.028
	c0.59,0.094,1.415,0.697,1.1,1.669c-0.281,0.877-1.058,1.105-1.784,0.859C549.579,125.15,546.291,125.217,542.539,122.583z"/>
<path fill-rule="evenodd" clip-rule="evenodd" fill="#6FC1B7" d="M349.042,295.171c2.73,4.836,2.308,8.476,1.343,12.191
	C348.633,303.982,347.356,300.537,349.042,295.171z"/>
<path fill-rule="evenodd" clip-rule="evenodd" fill="#66C0BB" d="M647.918,192.365c4.252,1.291,5.2,5.021,6.282,8.687
	C650.409,199.497,649.865,195.393,647.918,192.365z"/>
<path fill-rule="evenodd" clip-rule="evenodd" fill="#6BC1B8" d="M470.98,442.128c3.653-0.344,7.253-0.475,10.122,2.551
	C477.398,445.502,474.012,444.669,470.98,442.128z"/>
<path fill-rule="evenodd" clip-rule="evenodd" fill="#66C0BB" d="M368.166,207.705c-0.821,4.062-2.958,6.869-4.538,10.307
	C361.768,214.569,363.517,210.638,368.166,207.705z"/>
<path fill-rule="evenodd" clip-rule="evenodd" fill="#64BFBC" d="M367.379,359.361c-3.106-2.459-4.924-5.528-5.39-10.526
	C365.755,352.182,366.967,355.578,367.379,359.361z"/>
<path fill-rule="evenodd" clip-rule="evenodd" fill="#68C0BA" d="M525.267,446.954c1.962-2.275,4.209-1.366,6.124-1.575
	c1.533-0.168,4.235-2.447,4.475,0.663c0.153,1.978-2.95,1.694-4.754,1.729C529.292,447.809,527.361,448.454,525.267,446.954z"/>
<path fill-rule="evenodd" clip-rule="evenodd" fill="#6BC1B8" d="M671.001,325.833c-1.41-4.037,0.687-6.923,0.887-9.995
	c0.037-0.583,0.749-1.402,1.685-0.945c0.732,0.359,1.111,1.064,0.838,1.867C673.465,319.522,673.747,322.715,671.001,325.833z"/>
<path fill-rule="evenodd" clip-rule="evenodd" fill="#6FC1B6" d="M481.918,122.897c-3.091,2.308-6.09,2.175-8.749,3.086
	c-0.941,0.322-2.025,0.227-2.276-0.962c-0.26-1.236,0.949-1.806,1.73-1.747C475.481,123.487,478.38,120.8,481.918,122.897z"/>
<path fill-rule="evenodd" clip-rule="evenodd" fill="#6DC1B8" d="M349.817,259.495c0.873,0.687,1.108,0.778,1.119,0.894
	c0.328,3.324,1.084,6.718-1.248,9.67c-0.124,0.156-1.297-0.142-1.338-0.353C347.711,266.318,348.773,263.194,349.817,259.495z"/>
<path fill-rule="evenodd" clip-rule="evenodd" fill="#6AC0B9" d="M671.08,241.607c2.707,3.055,2.438,6.404,3.349,9.3
	c0.229,0.731-0.233,1.558-1.12,1.61c-0.425,0.024-1.223-0.433-1.27-0.755C671.602,248.65,669.659,245.647,671.08,241.607z"/>
<path fill-rule="evenodd" clip-rule="evenodd" fill="#68C0BA" d="M665.168,224.374c3.432,2.552,3.732,6.277,4.042,10.001
	C665.824,231.804,665.484,228.094,665.168,224.374z"/>
<path fill-rule="evenodd" clip-rule="evenodd" fill="#62BFBD" d="M387.834,177.199c-0.542,3.934-3.549,5.991-5.944,8.543
	C381.494,181.209,384.999,179.434,387.834,177.199z"/>
<path fill-rule="evenodd" clip-rule="evenodd" fill="#64BFBB" d="M595.323,142.026c3.771,0.804,6.915,2.445,9.776,6.193
	C600.19,147.599,597.42,145.29,595.323,142.026z"/>
<path fill-rule="evenodd" clip-rule="evenodd" fill="#5FBEBE" d="M624.312,164.208c3.734,1.291,6.4,3.669,8.546,8.07
	C628.019,170.661,626.339,167.237,624.312,164.208z"/>
<path fill-rule="evenodd" clip-rule="evenodd" fill="#64BFBC" d="M371.106,201.032c0.197-4.097,2.763-6.608,5.317-9.143
	C376.642,196.121,374.058,198.729,371.106,201.032z"/>
<path fill-rule="evenodd" clip-rule="evenodd" fill="#69C1B9" d="M462.907,440.109c-3.585-0.375-7.263-0.487-10.434-4.461
	C457.109,436.221,460.488,437,462.907,440.109z"/>
<path fill-rule="evenodd" clip-rule="evenodd" fill="#60BFBE" d="M579.181,433.365c2.622-2.643,5.463-4.544,10.217-5.004
	C586.193,432.284,582.836,433.272,579.181,433.365z"/>
<path fill-rule="evenodd" clip-rule="evenodd" fill="#61BEBE" d="M588.471,138.224c-3.878,0.253-6.887-1.402-10.252-4.493
	C583.127,133.323,585.807,135.737,588.471,138.224z"/>
<path fill-rule="evenodd" clip-rule="evenodd" fill="#62BFBC" d="M429.618,425.354c-3.437-1.245-6.965-2.275-9.657-6.247
	C424.714,419.924,427.862,421.564,429.618,425.354z"/>
<path fill-rule="evenodd" clip-rule="evenodd" fill="#61BEBE" d="M392.954,171.573c1.59-3.5,3.812-6.349,8.595-8.462
	C399.264,167.766,396.566,170.121,392.954,171.573z"/>
<path fill-rule="evenodd" clip-rule="evenodd" fill="#68C0BA" d="M499.458,119.794c-0.202,0.968-0.198,1.275-0.281,1.3
	c-3.208,0.983-6.466,1.656-9.817,0.92c-0.384-0.085-0.671-1.017-0.007-1.388C492.541,118.844,495.898,119.536,499.458,119.794z"/>
<path fill-rule="evenodd" clip-rule="evenodd" fill="#61BEBE" d="M415.205,153.442c-2.686,2.093-5.373,4.186-8.06,6.279
	c-0.387-0.498-0.776-0.997-1.163-1.495c2.21-2.853,4.963-5.034,8.407-6.362C414.661,152.39,414.934,152.915,415.205,153.442z"/>
<path fill-rule="evenodd" clip-rule="evenodd" fill="#61BEBE" d="M674.612,260.076c1.598,3.244,3.213,6.441,1.417,11.253
	C673.805,267.076,673.367,263.688,674.612,260.076z"/>
<path fill-rule="evenodd" clip-rule="evenodd" fill="#61BEBE" d="M463.474,126.959c-2.618,3.206-6.22,3.694-9.896,3.973
	C456.18,127.684,459.723,127.034,463.474,126.959z"/>
<path fill-rule="evenodd" clip-rule="evenodd" fill="#62BFBD" d="M618.453,158.855c-3.429-1.379-6.523-3.128-8.983-7.168
	C614.523,152.661,616.606,155.649,618.453,158.855z"/>
<path fill-rule="evenodd" clip-rule="evenodd" fill="#62BFBD" d="M657.43,207.181c4.216,2.727,4.199,6.756,5.502,10.099
	C659.686,215.138,658.65,213.14,657.43,207.181z"/>
<path fill-rule="evenodd" clip-rule="evenodd" fill="#64BFBC" d="M669.158,332.784c0.005,3.648-0.712,7.054-3.529,9.638
	C665.275,338.681,666.196,335.391,669.158,332.784z"/>
<path fill-rule="evenodd" clip-rule="evenodd" fill="#61BEBE" d="M377.417,376.526c-3.906-3.398-6.123-6.21-6.902-11.271
	C374.289,368.463,376.376,371.353,377.417,376.526z"/>
<path fill-rule="evenodd" clip-rule="evenodd" fill="#61BEBE" d="M654.039,366.167c-0.214,4.083-2.878,6.651-5.508,9.241
	C649.029,371.5,650.754,368.352,654.039,366.167z"/>
<path fill-rule="evenodd" clip-rule="evenodd" fill="#66C0BC" d="M446.248,133.812c-2.669,2.865-5.9,4.325-10.885,5.834
	C438.882,134.944,442.383,133.917,446.248,133.812z"/>
<path fill-rule="evenodd" clip-rule="evenodd" fill="#5FBEBE" d="M400.662,403.132c-4.03-0.928-5.936-4.071-7.931-7.138
	C396.813,396.775,398.762,399.926,400.662,403.132z"/>
<path fill-rule="evenodd" clip-rule="evenodd" fill="#61BEBE" d="M632.931,394.686c-2.102,4.84-4.966,7.055-8.409,8.728
	C625.676,399.6,628.324,397.185,632.931,394.686z"/>
<path fill-rule="evenodd" clip-rule="evenodd" fill="#61BEBE" d="M406.586,408.36c3.386,1.447,6.644,3.018,8.994,7.395
	C410.856,414.279,408.064,412.134,406.586,408.36z"/>
<path fill-rule="evenodd" clip-rule="evenodd" fill="#66C0BB" d="M560.971,126.799c4.761,0.009,7.992,1.124,11.958,4.494
	C567.823,131.026,564.466,130.254,560.971,126.799z"/>
<path fill-rule="evenodd" clip-rule="evenodd" fill="#4DBBCA" d="M517.556,119.705c-3.357,1.454-6.754,1.417-11.277,0.384
	C510.652,117.682,514.089,118.435,517.556,119.705z"/>
<path fill-rule="evenodd" clip-rule="evenodd" fill="#5FBEBF" d="M420.826,147.66c2.186-3.1,5.241-4.785,8.826-5.62
	C427.767,145.503,424.763,147.291,420.826,147.66z"/>
<path fill-rule="evenodd" clip-rule="evenodd" fill="#5FBEBF" d="M524.679,119.792c4.718-0.179,8.343-1.133,11.345,1.896
	C532.513,121.92,528.893,122.844,524.679,119.792z"/>
<path fill-rule="evenodd" clip-rule="evenodd" fill="#62BFBD" d="M446.392,433.459c-3.983-0.033-7.343-1.328-11.159-5.098
	C440.685,428.805,443.584,431.039,446.392,433.459z"/>
<path fill-rule="evenodd" clip-rule="evenodd" fill="#5FBEBF" d="M595.419,425.396c1.896-3.455,4.953-5.137,8.637-5.87
	C602.319,423.133,598.553,423.828,595.419,425.396z"/>
<path fill-rule="evenodd" clip-rule="evenodd" fill="#5FBEBE" d="M610.515,415.203c1.212-3.804,4.768-5.017,7.728-6.942
	C617.202,412.147,613.921,413.737,610.515,415.203z"/>
<path fill-rule="evenodd" clip-rule="evenodd" fill="#61BEBE" d="M643.98,381.796c-1.201,3.548-3.157,6.435-7.141,8.99
	C638.052,385.989,640.281,383.301,643.98,381.796z"/>
<path fill-rule="evenodd" clip-rule="evenodd" fill="#64BFBC" d="M388.811,390.791c-4.684-2.198-6.178-5.372-7.248-8.901
	C384.982,383.438,386.799,386.337,388.811,390.791z"/>
<path fill-rule="evenodd" clip-rule="evenodd" fill="#64BFBC" d="M359.713,342.767c-2.82-2.687-3.776-6.054-4.196-11.057
	C359.144,335.504,359.943,338.924,359.713,342.767z"/>
<path fill-rule="evenodd" clip-rule="evenodd" fill="#61BEBE" d="M353.721,324.969c-1.85-3.164-3.192-6.358-2.132-10.897
	C354.112,317.898,354.951,321.231,353.721,324.969z"/>
<path fill-rule="evenodd" clip-rule="evenodd" fill="#61BEBE" d="M676.262,296.387c1.508,4.294-0.098,7.295-0.837,10.787
	C673.148,303.284,673.214,302.354,676.262,296.387z"/>
<path fill-rule="evenodd" clip-rule="evenodd" fill="#62BFBC" d="M356.334,234.336c-0.319-3.791,0.439-7.225,3.696-10.742
	C360.271,228.301,358.873,231.495,356.334,234.336z"/>
<path fill-rule="evenodd" clip-rule="evenodd" fill="#4DBBCA" d="M517.532,447.711c-3.366,1.286-6.695,1.751-9.938-0.392
	C510.915,446.533,514.229,446.037,517.532,447.711z"/>
<path fill-rule="evenodd" clip-rule="evenodd" fill="#5DBEC0" d="M572.533,435.681c-3.223,3.944-6.906,4.021-10.484,4.335
	C564.645,437.454,567.867,436.32,572.533,435.681z"/>
<path fill-rule="evenodd" clip-rule="evenodd" fill="#61BEBE" d="M657.644,359.397c0.765-3.605,1.575-7.186,5.605-10.703
	C662.317,353.8,660.894,357.067,657.644,359.397z"/>
<path fill-rule="evenodd" clip-rule="evenodd" fill="#4CBACB" d="M676.392,288.365c-1.968-3.292-1.358-6.57-0.355-9.866
	C677.783,281.733,677.146,285.066,676.392,288.365z"/>
<path fill-rule="evenodd" clip-rule="evenodd" fill="#5CBDC2" d="M352.072,251.785c-1.504-3.477-0.04-6.412,1.616-9.332
	C355.247,245.868,353.562,248.803,352.072,251.785z"/>
<path fill-rule="evenodd" clip-rule="evenodd" fill="#59BDC2" d="M637.4,177.622c3.293,1.759,5.54,4.382,6.436,8.136
	C640.858,183.774,638.398,181.335,637.4,177.622z"/>
<path fill-rule="evenodd" clip-rule="evenodd" fill="#56BCC5" d="M348.837,279.025c1.504,3.112,1.506,6.229,0.316,10.416
	C346.896,285.374,347.562,282.2,348.837,279.025z"/>
<path fill-rule="evenodd" clip-rule="evenodd" fill="#4CBACB" d="M910.283,595.229c-14.666,0-29.331,0.135-43.992-0.087
	c-4.023-0.058-5.482,1.158-5.104,5.164c0.326,3.399-0.181,6.894,0.278,10.264c0.958,7.054,7.747,13.994,15.204,14.125
	c19.021,0.327,38.068,0.986,57.078-0.495c7.774-0.607,12.849-5.126,14.405-12.512c1.2-5.7,4.884-5.037,8.529-4.525
	c4.687,0.655,2.683,4.272,2.208,6.746c-2.431,12.673-11.752,20.768-26.024,21.131c-19.394,0.495-38.827,1.301-58.206-0.649
	c-13.2-1.328-23.111-11.279-23.511-24.352c-0.398-13.13-0.465-26.287-0.104-39.418c0.4-14.488,10.711-24.607,25.271-25.74
	c20.148-1.57,40.293-1.685,60.426,0.062c11.395,0.99,20.785,10.842,21.923,22.06c0.771,7.599,0.64,15.197,0.969,22.795
	c0.182,4.192-0.954,5.618-5.357,5.537C939.616,595.062,924.948,595.229,910.283,595.229z M938.201,584.116
	c11.557,0,11.557,0,10.953-11.79c-0.559-10.938-7.773-17.967-18.745-18.001c-16.364-0.054-32.733-0.042-49.096,0.106
	c-10.255,0.094-17.03,4.611-19.463,12.658c-1.18,3.903-0.239,7.959-0.644,11.912c-0.408,3.958,1.007,5.275,5.063,5.201
	c12.937-0.232,25.878-0.087,38.818-0.087C916.127,584.116,927.163,584.116,938.201,584.116z"/>
<path fill-rule="evenodd" clip-rule="evenodd" fill="#4CBACB" d="M643.413,580.38c10.673,0,21.348-0.151,32.014,0.081
	c3.883,0.084,5.258-0.917,5.263-5.045c0.012-14.242-6.552-21.112-20.809-21.121c-14.102-0.008-28.204,0.088-42.307-0.03
	c-8.76-0.075-15.15,3.573-18.424,11.693c-2.05,5.089-6.188,3.344-9.16,2.811c-4.118-0.739-1.21-4.331-0.66-5.998
	c3.171-9.609,9.933-16.289,19.931-17.482c20.266-2.422,40.672-2.229,60.995-0.191c9.41,0.944,21.396,11.665,20.99,23.543
	c-0.679,19.985-0.145,40.015-0.254,60.025c-0.011,1.991,1.308,5.488-2.061,5.535c-2.753,0.034-7.125,3.006-8.377-2.566
	c-0.591-2.635-2.092-0.854-2.946-0.433c-7.028,3.452-14.492,4.287-22.201,4.229c-14.484-0.111-28.973,0.182-43.45-0.114
	c-18.919-0.388-31.553-17.664-26.318-35.545c3.053-10.422,14.053-18.84,25.186-19.274c0.381-0.016,0.763-0.02,1.143-0.022
	c10.482,0,20.964,0,31.446,0C643.413,580.443,643.413,580.413,643.413,580.38z M645.244,589.811c-9.9,0-19.803-0.08-29.704,0.034
	c-4.76,0.057-9.532,0.454-13.583,3.439c-6.115,4.509-8.5,11.498-6.415,18.67c2.147,7.396,8.554,12.775,16.96,12.953
	c15.987,0.337,32.004,0.584,47.976-0.02c14.022-0.532,20.079-7.632,20.105-21.565c0.004-3.046-0.195-6.111,0.051-9.135
	c0.288-3.523-1.054-4.609-4.542-4.545c-10.279,0.195-20.563,0.07-30.848,0.07C645.244,589.747,645.244,589.78,645.244,589.811z"/>
<path fill-rule="evenodd" clip-rule="evenodd" fill="#4CBACB" d="M458.734,549.487c0-11.573,0.21-22.241-0.101-32.896
	c-0.13-4.468,1.927-4.816,5.475-4.812c3.432,0.007,5.097,0.577,5.08,4.638c-0.144,38.115-0.083,76.234-0.091,114.351
	c-0.001,2.236,0.506,4.838-3.183,4.636c-3.502-0.191-8.083,1.507-7.379-5.601c-6.801,5.061-13.985,5.517-21.273,5.46
	c-17.895-0.136-35.801,0.885-53.683-0.877c-11.534-1.138-21.326-10.8-22.226-22.38c-1.184-15.197-2.051-30.441,0.192-45.568
	c1.926-12.983,11.258-20.619,24.244-21.57c19.978-1.465,39.928-1.458,59.91-0.083C450.248,545.1,454.017,547.047,458.734,549.487z
	 M390.171,554.299c-0.19,0-0.381-0.002-0.57,0.003c-11.182,0.27-18.558,7.476-18.736,18.702c-0.179,11.24-0.209,22.491,0.015,33.729
	c0.2,10.035,6.66,17.755,16.329,17.967c18.646,0.41,37.344,1.092,55.965-0.546c9.845-0.866,15.486-7.676,15.54-17.681
	c0.058-11.246,0.065-22.488,0-33.731c-0.065-10.98-7.27-18.276-18.232-18.419c-8.383-0.109-16.77-0.023-25.156-0.023
	C406.942,554.299,398.556,554.299,390.171,554.299z"/>
</svg>
