<?xml version="1.0" encoding="utf-8"?>
<!-- Generator: Adobe Illustrator 16.0.4, SVG Export Plug-In . SVG Version: 6.00 Build 0)  -->
<!DOCTYPE svg PUBLIC "-//W3C//DTD SVG 1.1//EN" "http://www.w3.org/Graphics/SVG/1.1/DTD/svg11.dtd">
<svg version="1.1" id="Layer_1" xmlns="http://www.w3.org/2000/svg" xmlns:xlink="http://www.w3.org/1999/xlink" x="0px" y="0px"
	 width="768px" height="768px" viewBox="0 0 768 768" enable-background="new 0 0 768 768" xml:space="preserve">
<path fill-rule="evenodd" clip-rule="evenodd" fill="#DBE15F" d="M383.954,753.588C184.248,754.915,13.191,592.659,13.505,382.872
	c0.324-212.79,175.151-370.555,371.418-370.109c197.438,0.453,370.494,160.505,369.841,371.698
	C754.116,594.251,582.361,755.251,383.954,753.588z"/>
<path fill-rule="evenodd" clip-rule="evenodd" fill="#FDFDFB" d="M148.063,269.553c22.687-17.285,47.24-15.885,70.596-17.068
	c32.273-1.636,64.716-1.303,97.036-0.3c23.515,0.728,44.978,8.708,61.541,26.439c4.907,5.25,7.432,7.571,13.486,0.387
	c16.766-19.89,40.187-26.272,64.922-26.71c42.547-0.75,85.105-1.768,127.646,1.812c35.386,2.977,64.637,33.432,66.468,68.706
	c3.095,59.757,0.869,119.534,1.969,179.288c0.185,9.896-2.128,14.755-12.719,13.06c-2.395-0.383-4.955-0.372-7.356,0
	c-9.421,1.451-11.663-2.721-11.604-11.718c0.375-56.106-0.065-112.221,0.306-168.332c0.153-23.778-11.706-39.128-31.566-49.82
	c-5.555-2.99-11.476-3.959-17.756-3.938c-39.727,0.127-79.457-0.025-119.186,0.195c-28.452,0.155-50.566,22.145-50.676,50.65
	c-0.221,56.932-0.296,113.864,0.145,170.792c0.08,9.716-2.61,12.58-12.331,12.341c-21.95-0.537-21.959-0.033-21.959-22.2
	c0-52.427-1.263-104.894,0.522-157.262c0.906-26.607-25.368-56.907-54.997-55.032c-34.674,2.199-69.593,0.623-104.405,0.64
	c-9.486,0.005-18.767,1.471-27.729,4.375c-20.501,6.641-32.393,22.631-32.454,44.131c-0.16,57.339-0.543,114.688,0.286,172.019
	c0.187,12.979-5.47,13.659-15.188,13.233c-8.965-0.391-16.96,1.918-16.806-12.944c0.8-77.402,0.658-154.819,0.069-232.224
	c-0.091-12.049,4.119-15.058,14.782-13.762C138.829,257.256,149.758,252.391,148.063,269.553z"/>
<path fill-rule="evenodd" clip-rule="evenodd" fill="#73C3B4" d="M473.685,723.119c-6.049,7.16-14.109,6.945-25.099,8.48
	C457.315,721.754,465.94,724.038,473.685,723.119z"/>
<path fill-rule="evenodd" clip-rule="evenodd" fill="#6FC1B6" d="M355.871,732.431c-6.195,5.004-12.504,3.744-18.717,2.927
	c-1.883-0.252-4.182-1.294-3.706-3.887c0.478-2.62,2.898-2.602,4.851-2.28C344.176,730.144,350.017,731.329,355.871,732.431z"/>
<path fill-rule="evenodd" clip-rule="evenodd" fill="#6AC0B9" d="M448.632,37.223c9.989-2.52,16.253,1.162,22.819,2.209
	c1.268,0.202,3.041,1.497,2.363,3.587c-0.604,1.885-2.272,2.375-3.834,1.845C463.76,42.742,456.694,42.885,448.632,37.223z"/>
<path fill-rule="evenodd" clip-rule="evenodd" fill="#6FC1B7" d="M32.817,408.108c5.867,10.392,4.96,18.212,2.886,26.196
	C31.938,427.042,29.193,419.638,32.817,408.108z"/>
<path fill-rule="evenodd" clip-rule="evenodd" fill="#66C0BB" d="M675.085,187.182c9.137,2.774,11.175,10.79,13.5,18.667
	C680.438,202.508,679.27,193.689,675.085,187.182z"/>
<path fill-rule="evenodd" clip-rule="evenodd" fill="#6BC1B8" d="M294.856,723.909c7.85-0.739,15.587-1.021,21.752,5.48
	C308.647,731.159,301.37,729.369,294.856,723.909z"/>
<path fill-rule="evenodd" clip-rule="evenodd" fill="#66C0BB" d="M73.912,220.147c-1.765,8.73-6.355,14.76-9.751,22.148
	C60.163,234.897,63.922,226.45,73.912,220.147z"/>
<path fill-rule="evenodd" clip-rule="evenodd" fill="#64BFBC" d="M72.222,546.048c-6.675-5.284-10.582-11.883-11.583-22.623
	C68.732,530.62,71.336,537.919,72.222,546.048z"/>
<path fill-rule="evenodd" clip-rule="evenodd" fill="#68C0BA" d="M411.514,734.279c4.216-4.89,9.045-2.936,13.16-3.384
	c3.295-0.361,9.103-5.26,9.616,1.425c0.329,4.249-6.34,3.641-10.217,3.715C420.164,736.116,416.016,737.504,411.514,734.279z"/>
<path fill-rule="evenodd" clip-rule="evenodd" fill="#6BC1B8" d="M724.689,473.999c-3.031-8.675,1.475-14.879,1.905-21.48
	c0.079-1.253,1.61-3.014,3.62-2.031c1.574,0.772,2.388,2.287,1.801,4.012C729.984,460.437,730.59,467.296,724.689,473.999z"/>
<path fill-rule="evenodd" clip-rule="evenodd" fill="#6FC1B6" d="M318.36,37.9c-6.643,4.96-13.087,4.674-18.801,6.632
	c-2.023,0.691-4.352,0.488-4.891-2.068c-0.559-2.656,2.039-3.881,3.717-3.755C304.527,39.166,310.758,33.393,318.36,37.9z"/>
<path fill-rule="evenodd" clip-rule="evenodd" fill="#6DC1B8" d="M34.483,331.44c1.876,1.476,2.381,1.673,2.405,1.921
	c0.704,7.143,2.331,14.436-2.682,20.78c-0.266,0.335-2.787-0.305-2.875-0.757C29.957,346.104,32.239,339.39,34.483,331.44z"/>
<path fill-rule="evenodd" clip-rule="evenodd" fill="#6AC0B9" d="M724.859,293.001c5.817,6.564,5.239,13.761,7.196,19.985
	c0.492,1.57-0.503,3.347-2.407,3.46c-0.914,0.051-2.628-0.93-2.729-1.622C725.979,308.135,721.807,301.683,724.859,293.001z"/>
<path fill-rule="evenodd" clip-rule="evenodd" fill="#68C0BA" d="M712.153,255.967c7.375,5.485,8.021,13.49,8.688,21.492
	C713.564,271.935,712.834,263.961,712.153,255.967z"/>
<path fill-rule="evenodd" clip-rule="evenodd" fill="#62BFBD" d="M116.18,154.592c-1.164,8.454-7.626,12.874-12.773,18.358
	C102.555,163.208,110.085,159.394,116.18,154.592z"/>
<path fill-rule="evenodd" clip-rule="evenodd" fill="#64BFBB" d="M562.062,79.006c8.104,1.728,14.858,5.254,21.008,13.309
	C572.521,90.982,566.567,86.019,562.062,79.006z"/>
<path fill-rule="evenodd" clip-rule="evenodd" fill="#5FBEBE" d="M624.357,126.673c8.025,2.774,13.755,7.885,18.366,17.342
	C632.322,140.541,628.713,133.183,624.357,126.673z"/>
<path fill-rule="evenodd" clip-rule="evenodd" fill="#64BFBC" d="M80.232,205.806c0.423-8.804,5.937-14.2,11.426-19.648
	C92.128,195.254,86.574,200.856,80.232,205.806z"/>
<path fill-rule="evenodd" clip-rule="evenodd" fill="#69C1B9" d="M277.506,719.571c-7.704-0.806-15.608-1.047-22.421-9.586
	C265.048,711.215,272.308,712.889,277.506,719.571z"/>
<path fill-rule="evenodd" clip-rule="evenodd" fill="#60BFBE" d="M527.373,705.078c5.634-5.679,11.739-9.764,21.955-10.754
	C542.441,702.756,535.227,704.879,527.373,705.078z"/>
<path fill-rule="evenodd" clip-rule="evenodd" fill="#61BEBE" d="M547.335,70.835c-8.332,0.543-14.799-3.013-22.029-9.656
	C535.853,60.305,541.61,65.492,547.335,70.835z"/>
<path fill-rule="evenodd" clip-rule="evenodd" fill="#62BFBC" d="M205.971,687.863c-7.385-2.676-14.967-4.89-20.753-13.424
	C195.432,676.193,202.197,679.719,205.971,687.863z"/>
<path fill-rule="evenodd" clip-rule="evenodd" fill="#61BEBE" d="M127.18,142.502c3.417-7.521,8.193-13.644,18.47-18.186
	C140.74,134.319,134.943,139.381,127.18,142.502z"/>
<path fill-rule="evenodd" clip-rule="evenodd" fill="#68C0BA" d="M356.052,31.232c-0.434,2.081-0.426,2.74-0.604,2.794
	c-6.894,2.114-13.895,3.558-21.096,1.978c-0.826-0.182-1.442-2.184-0.016-2.981C341.188,29.189,348.403,30.677,356.052,31.232z"/>
<path fill-rule="evenodd" clip-rule="evenodd" fill="#61BEBE" d="M174.998,103.539c-5.772,4.497-11.546,8.995-17.319,13.492
	c-0.832-1.07-1.667-2.142-2.5-3.212c4.75-6.13,10.666-10.818,18.066-13.671C173.828,101.278,174.416,102.405,174.998,103.539z"/>
<path fill-rule="evenodd" clip-rule="evenodd" fill="#61BEBE" d="M732.449,332.688c3.434,6.971,6.905,13.842,3.045,24.182
	C730.714,347.731,729.773,340.451,732.449,332.688z"/>
<path fill-rule="evenodd" clip-rule="evenodd" fill="#61BEBE" d="M278.724,46.629c-5.626,6.889-13.367,7.939-21.267,8.537
	C263.05,48.186,270.665,46.789,278.724,46.629z"/>
<path fill-rule="evenodd" clip-rule="evenodd" fill="#62BFBD" d="M611.767,115.171c-7.368-2.963-14.019-6.723-19.305-15.405
	C603.322,101.86,607.798,108.281,611.767,115.171z"/>
<path fill-rule="evenodd" clip-rule="evenodd" fill="#62BFBD" d="M695.524,219.02c9.06,5.859,9.024,14.518,11.823,21.702
	C700.373,236.121,698.148,231.826,695.524,219.02z"/>
<path fill-rule="evenodd" clip-rule="evenodd" fill="#64BFBC" d="M720.729,488.933c0.011,7.841-1.529,15.161-7.584,20.714
	C712.386,501.606,714.364,494.536,720.729,488.933z"/>
<path fill-rule="evenodd" clip-rule="evenodd" fill="#61BEBE" d="M93.794,582.935c-8.395-7.302-13.158-13.344-14.833-24.222
	C87.07,565.606,91.557,571.818,93.794,582.935z"/>
<path fill-rule="evenodd" clip-rule="evenodd" fill="#61BEBE" d="M688.239,560.675c-0.46,8.771-6.185,14.291-11.837,19.857
	C677.474,572.133,681.179,565.367,688.239,560.675z"/>
<path fill-rule="evenodd" clip-rule="evenodd" fill="#66C0BC" d="M241.707,61.354c-5.735,6.157-12.678,9.293-23.39,12.537
	C225.879,63.787,233.402,61.582,241.707,61.354z"/>
<path fill-rule="evenodd" clip-rule="evenodd" fill="#5FBEBE" d="M143.746,640.109c-8.661-1.994-12.755-8.75-17.043-15.339
	C135.475,626.449,139.662,633.219,143.746,640.109z"/>
<path fill-rule="evenodd" clip-rule="evenodd" fill="#61BEBE" d="M642.878,621.957c-4.517,10.401-10.671,15.16-18.071,18.755
	C627.288,632.519,632.979,627.328,642.878,621.957z"/>
<path fill-rule="evenodd" clip-rule="evenodd" fill="#61BEBE" d="M156.476,651.344c7.277,3.109,14.278,6.485,19.328,15.891
	C165.651,664.063,159.653,659.454,156.476,651.344z"/>
<path fill-rule="evenodd" clip-rule="evenodd" fill="#66C0BB" d="M488.24,46.285c10.23,0.02,17.175,2.415,25.696,9.657
	C502.966,55.368,495.751,53.709,488.24,46.285z"/>
<path fill-rule="evenodd" clip-rule="evenodd" fill="#4DBBCA" d="M394.943,31.039c-7.215,3.123-14.514,3.044-24.234,0.826
	C380.109,26.691,387.494,28.31,394.943,31.039z"/>
<path fill-rule="evenodd" clip-rule="evenodd" fill="#5FBEBF" d="M187.076,91.112c4.698-6.661,11.262-10.282,18.967-12.076
	C201.991,86.478,195.536,90.321,187.076,91.112z"/>
<path fill-rule="evenodd" clip-rule="evenodd" fill="#5FBEBF" d="M410.25,31.227c10.139-0.385,17.929-2.435,24.38,4.074
	C427.085,35.799,419.306,37.784,410.25,31.227z"/>
<path fill-rule="evenodd" clip-rule="evenodd" fill="#62BFBD" d="M242.016,705.279c-8.559-0.071-15.779-2.854-23.979-10.955
	C229.752,695.278,235.982,700.08,242.016,705.279z"/>
<path fill-rule="evenodd" clip-rule="evenodd" fill="#5FBEBF" d="M562.268,687.954c4.075-7.426,10.644-11.039,18.561-12.614
	C577.096,683.09,569.002,684.583,562.268,687.954z"/>
<path fill-rule="evenodd" clip-rule="evenodd" fill="#5FBEBE" d="M594.708,666.049c2.604-8.174,10.245-10.78,16.604-14.918
	C609.078,659.483,602.026,662.899,594.708,666.049z"/>
<path fill-rule="evenodd" clip-rule="evenodd" fill="#61BEBE" d="M666.623,594.26c-2.581,7.626-6.784,13.828-15.345,19.318
	C653.884,603.27,658.675,597.493,666.623,594.26z"/>
<path fill-rule="evenodd" clip-rule="evenodd" fill="#64BFBC" d="M118.278,613.589c-10.065-4.725-13.276-11.545-15.576-19.129
	C110.05,597.786,113.956,604.017,118.278,613.589z"/>
<path fill-rule="evenodd" clip-rule="evenodd" fill="#64BFBC" d="M55.75,510.387c-6.061-5.773-8.116-13.009-9.018-23.76
	C54.524,494.78,56.244,502.129,55.75,510.387z"/>
<path fill-rule="evenodd" clip-rule="evenodd" fill="#61BEBE" d="M42.871,472.14c-3.975-6.797-6.86-13.661-4.582-23.416
	C43.711,456.946,45.516,464.107,42.871,472.14z"/>
<path fill-rule="evenodd" clip-rule="evenodd" fill="#61BEBE" d="M735.994,410.719c3.24,9.229-0.21,15.679-1.799,23.181
	C729.304,425.539,729.444,423.543,735.994,410.719z"/>
<path fill-rule="evenodd" clip-rule="evenodd" fill="#62BFBC" d="M48.487,277.375c-0.685-8.147,0.944-15.526,7.943-23.083
	C56.947,264.407,53.942,271.271,48.487,277.375z"/>
<path fill-rule="evenodd" clip-rule="evenodd" fill="#4DBBCA" d="M394.894,735.906c-7.234,2.765-14.387,3.764-21.357-0.841
	C380.672,733.375,387.793,732.31,394.894,735.906z"/>
<path fill-rule="evenodd" clip-rule="evenodd" fill="#5DBEC0" d="M513.087,710.055c-6.925,8.475-14.841,8.639-22.53,9.315
	C496.135,713.865,503.061,711.429,513.087,710.055z"/>
<path fill-rule="evenodd" clip-rule="evenodd" fill="#61BEBE" d="M695.984,546.126c1.644-7.746,3.386-15.442,12.046-22.998
	C706.028,534.096,702.969,541.116,695.984,546.126z"/>
<path fill-rule="evenodd" clip-rule="evenodd" fill="#4CBACB" d="M736.273,393.481c-4.229-7.076-2.92-14.121-0.765-21.202
	C739.264,379.23,737.896,386.393,736.273,393.481z"/>
<path fill-rule="evenodd" clip-rule="evenodd" fill="#5CBDC2" d="M39.329,314.872c-3.233-7.471-0.085-13.778,3.473-20.053
	C46.151,302.156,42.529,308.464,39.329,314.872z"/>
<path fill-rule="evenodd" clip-rule="evenodd" fill="#59BDC2" d="M652.483,155.5c7.077,3.781,11.905,9.417,13.83,17.483
	C659.914,168.721,654.628,163.479,652.483,155.5z"/>
<path fill-rule="evenodd" clip-rule="evenodd" fill="#56BCC5" d="M32.376,373.409c3.233,6.688,3.236,13.386,0.68,22.385
	C28.207,387.054,29.636,380.231,32.376,373.409z"/>
</svg>
